<?xml version="1.0" encoding="utf-8"?>
<!-- Generator: Adobe Illustrator 19.1.0, SVG Export Plug-In . SVG Version: 6.00 Build 0)  -->
<svg version="1.1" id="Layer_1" xmlns="http://www.w3.org/2000/svg" xmlns:xlink="http://www.w3.org/1999/xlink" x="0px" y="0px"
	 viewBox="0 0 300 250" enable-background="new 0 0 300 250" xml:space="preserve">
<path fill="#FFFFFF" d="M12.3,42.6l1-3.8h3.5l1,3.9l1.5-0.3l-3.4-12.3h-1.7l-3.5,12.5H12.3z M15,32.1l1.4,5.2h-2.8L15,32.1z"/>
<path fill="#FFFFFF" d="M22.6,31.2c0-0.5-0.4-1-1-1c-0.5,0-1,0.5-1,1c0,0.5,0.4,1,1,1C22.2,32.2,22.6,31.8,22.6,31.2z M22.4,42.6V34
	h-1.5v8.6H22.4z"/>
<path fill="#FFFFFF" d="M28.6,35.3l-0.2-1.5c-1,0.1-1.8,0.7-2.3,1.5L25.9,34h-1.2v8.6h1.5v-5.7C26.6,36.1,27.5,35.4,28.6,35.3z"/>
<path fill="#FFFFFF" d="M31.8,42.6v-13l-1.5,0.3v12.7H31.8z"/>
<path fill="#FFFFFF" d="M36,31.2c0-0.5-0.4-1-1-1c-0.5,0-1,0.5-1,1c0,0.5,0.4,1,1,1C35.5,32.2,36,31.8,36,31.2z M35.8,42.6V34h-1.5
	v8.6H35.8z"/>
<path fill="#FFFFFF" d="M43.7,42.6v-6.8c0-1.2-0.7-2-2-2c-0.9,0-1.7,0.5-2.3,1.1L39.2,34H38v8.6h1.5v-6.4c0.5-0.5,1.1-0.9,1.7-0.9
	c0.6,0,0.8,0.4,0.8,1v6.4H43.7z"/>
<path fill="#FFFFFF" d="M51.4,38.7v-0.6c0-2.3-0.8-4.3-2.9-4.3c-2,0-3.1,2-3.1,4.4c0,2.8,1.2,4.5,3.4,4.5c1,0,2-0.4,2.7-0.9
	l-0.2-1.4c-0.8,0.6-1.6,1-2.3,1c-1.2,0-1.8-1.1-1.9-2.8H51.4z M48.4,35c0.9,0,1.4,1,1.4,2.4h-2.9C47.1,36,47.6,35,48.4,35z"/>
<path fill="#FFFFFF" d="M62.2,42.6v-6.2c0-1.8-0.8-2.6-2.4-2.6c-1,0-1.8,0.3-2.6,0.7l0.2,1.4c0.7-0.4,1.4-0.8,2.1-0.8
	c0.7,0,1.2,0.4,1.2,1.3V37c-2.4,0.4-4.1,1.3-4.1,3.4c0,1.6,1,2.4,2.1,2.4c0.9,0,1.6-0.4,2.2-1l0.1,0.8H62.2z M60.6,40.5
	c-0.5,0.6-1.1,0.9-1.7,0.9c-0.6,0-0.9-0.4-0.9-1.2c0-0.9,0.6-1.8,2.6-2.1V40.5z"/>
<path fill="#FFFFFF" d="M69.9,42.6v-6.8c0-1.2-0.7-2-2-2c-0.9,0-1.7,0.5-2.3,1.1L65.5,34h-1.2v8.6h1.5v-6.4c0.5-0.5,1.1-0.9,1.7-0.9
	c0.6,0,0.8,0.4,0.8,1v6.4H69.9z"/>
<path fill="#FFFFFF" d="M77.9,42.6v-13l-1.5,0.3v4.3c-0.4-0.2-1-0.3-1.5-0.3c-1.6,0-3.2,1.4-3.2,4.6c0,3,1.4,4.3,2.9,4.3
	c0.9,0,1.6-0.5,2.1-1.1l0.2,1H77.9z M76.4,40.3c-0.5,0.6-1,1.1-1.6,1.1c-0.9,0-1.6-0.9-1.6-3c0-2.3,0.8-3.2,1.9-3.2
	c0.5,0,0.8,0.1,1.3,0.4V40.3z"/>
<path fill="#FFFFFF" d="M89.8,39.6c0-1.9-0.9-2.8-2.5-4.1c-1.2-0.9-1.8-1.5-1.8-2.6c0-0.8,0.4-1.5,1.5-1.5c0.8,0,1.3,0.2,1.9,0.7
	l0.3-1.6C88.5,30.2,88,30,86.9,30c-1.9,0-3.1,1.4-3.1,3c0,1.9,1,2.7,2.5,3.9c1.3,1,1.8,1.7,1.8,2.8c0,1-0.7,1.6-1.7,1.6
	S84.7,41,84,40.5L83.7,42c0.8,0.4,1.7,0.7,2.7,0.7C88.5,42.7,89.8,41.4,89.8,39.6z"/>
<path fill="#FFFFFF" d="M97.2,42.6V34h-1.5v6.4c-0.5,0.5-1.1,0.9-1.7,0.9c-0.6,0-0.9-0.4-0.9-1V34h-1.5v6.8c0,1.2,0.7,2,2,2
	c0.9,0,1.7-0.5,2.3-1.1l0.2,0.9H97.2z"/>
<path fill="#FFFFFF" d="M105.6,38.1c0-3-1.3-4.3-2.8-4.3c-0.9,0-1.6,0.5-2.1,1.1l-0.2-1h-1.2v11.9l1.5-0.2v-3.3
	c0.4,0.2,1,0.3,1.5,0.3C104.1,42.7,105.6,41.3,105.6,38.1z M104.1,38.2c0,2.3-0.8,3.2-1.9,3.2c-0.5,0-0.8-0.1-1.3-0.3v-4.8
	c0.5-0.6,1.1-1.1,1.6-1.1C103.3,35.2,104.1,36.1,104.1,38.2z"/>
<path fill="#FFFFFF" d="M113.7,38.1c0-3-1.3-4.3-2.8-4.3c-0.9,0-1.6,0.5-2.1,1.1l-0.2-1h-1.2v11.9l1.5-0.2v-3.3
	c0.4,0.2,1,0.3,1.5,0.3C112.2,42.7,113.7,41.3,113.7,38.1z M112.2,38.2c0,2.3-0.8,3.2-1.9,3.2c-0.5,0-0.8-0.1-1.3-0.3v-4.8
	c0.4-0.6,1.1-1.1,1.6-1.1C111.4,35.2,112.2,36.1,112.2,38.2z"/>
<path fill="#FFFFFF" d="M117.2,42.6v-13l-1.5,0.3v12.7H117.2z"/>
<path fill="#FFFFFF" d="M121.3,31.2c0-0.5-0.4-1-1-1c-0.5,0-1,0.5-1,1c0,0.5,0.4,1,1,1C120.9,32.2,121.3,31.8,121.3,31.2z
	 M121.1,42.6V34h-1.5v8.6H121.1z"/>
<path fill="#FFFFFF" d="M129,38.7v-0.6c0-2.3-0.8-4.3-2.9-4.3c-2,0-3.1,2-3.1,4.4c0,2.8,1.2,4.5,3.4,4.5c1,0,2-0.4,2.7-0.9l-0.2-1.4
	c-0.8,0.6-1.6,1-2.3,1c-1.2,0-1.8-1.1-1.9-2.8H129z M126.1,35c0.9,0,1.4,1,1.4,2.4h-2.9C124.7,36,125.2,35,126.1,35z"/>
<path fill="#FFFFFF" d="M134.7,35.3l-0.2-1.5c-1,0.1-1.8,0.7-2.3,1.5L132,34h-1.2v8.6h1.5v-5.7C132.7,36.1,133.6,35.4,134.7,35.3z"
	/>
<path fill="#FFFFFF" d="M146.3,38.3c0-2.8-1.3-4.5-3.3-4.5c-2,0-3.3,1.7-3.3,4.5c0,2.8,1.3,4.5,3.3,4.5
	C144.9,42.8,146.3,41.1,146.3,38.3z M144.7,38.3c0,1.8-0.6,3.2-1.7,3.2c-1.1,0-1.7-1.4-1.7-3.2c0-1.8,0.6-3.2,1.7-3.2
	C144.1,35.1,144.7,36.5,144.7,38.3z"/>
<path fill="#FFFFFF" d="M151.6,31.2l-0.2-1.4c-0.1,0-0.4-0.1-0.6-0.1c-1.3,0-2.3,0.6-2.3,2.3V34h-1.1v1.3h1.1v7.3h1.5v-7.3h1.6
	l-0.2-1.3h-1.4v-1.7c0-0.8,0.3-1.1,1-1.1C151.2,31.1,151.5,31.2,151.6,31.2z"/>
<path fill="#FFFFFF" d="M160.6,42.6l-0.2-1.3c-0.2,0-0.4,0.1-0.6,0.1c-0.8,0-1-0.4-1-1v-5.1h1.7l-0.2-1.3h-1.5v-3.1l-1.5,0.2V34
	h-1.1v1.3h1.1v5.3c0,1.6,0.9,2.1,2.3,2.1C160.1,42.7,160.4,42.7,160.6,42.6z"/>
<path fill="#FFFFFF" d="M168,42.6v-6.8c0-1.2-0.7-2-1.9-2c-0.8,0-1.6,0.4-2.1,1v-5.2l-1.5,0.3v12.7h1.5v-6.4
	c0.5-0.5,1.1-0.9,1.7-0.9c0.6,0,0.8,0.4,0.8,1v6.4H168z"/>
<path fill="#FFFFFF" d="M175.7,38.7v-0.6c0-2.3-0.8-4.3-2.9-4.3c-2,0-3.1,2-3.1,4.4c0,2.8,1.2,4.5,3.4,4.5c1,0,2-0.4,2.7-0.9
	l-0.2-1.4c-0.8,0.6-1.6,1-2.3,1c-1.2,0-1.8-1.1-1.9-2.8H175.7z M172.7,35c0.9,0,1.4,1,1.4,2.4h-2.9C171.4,36,171.9,35,172.7,35z"/>
<path fill="#FFFFFF" d="M189.1,30.2h-1.7l-2.6,5.9l-2.6-6l-1.6,0.3l3.4,7.3v4.9h1.6v-4.9L189.1,30.2z"/>
<path fill="#FFFFFF" d="M196.1,38.7v-0.6c0-2.3-0.8-4.3-2.9-4.3c-2,0-3.1,2-3.1,4.4c0,2.8,1.2,4.5,3.4,4.5c1,0,2-0.4,2.7-0.9
	l-0.2-1.4c-0.8,0.6-1.6,1-2.3,1c-1.2,0-1.8-1.1-1.9-2.8H196.1z M193.1,35c0.9,0,1.4,1,1.4,2.4h-2.9C191.8,36,192.3,35,193.1,35z"/>
<path fill="#FFFFFF" d="M203,42.6v-6.2c0-1.8-0.8-2.6-2.4-2.6c-1,0-1.8,0.3-2.6,0.7l0.2,1.4c0.7-0.4,1.4-0.8,2.1-0.8
	c0.7,0,1.2,0.4,1.2,1.3V37c-2.4,0.4-4.1,1.3-4.1,3.4c0,1.6,1,2.4,2.1,2.4c0.9,0,1.6-0.4,2.2-1l0.1,0.8H203z M201.4,40.5
	c-0.5,0.6-1.1,0.9-1.7,0.9c-0.6,0-0.9-0.4-0.9-1.2c0-0.9,0.6-1.8,2.6-2.1V40.5z"/>
<path fill="#FFFFFF" d="M209,35.3l-0.2-1.5c-1,0.1-1.8,0.7-2.3,1.5l-0.2-1.3h-1.2v8.6h1.5v-5.7C207,36.1,207.9,35.4,209,35.3z"/>
<path fill="#FFFFFF" d="M216.3,31.2c0-0.5-0.4-1-1-1c-0.5,0-1,0.5-1,1c0,0.5,0.4,1,1,1C215.9,32.2,216.3,31.8,216.3,31.2z
	 M216.1,42.6V34h-1.5v8.6H216.1z"/>
<path fill="#FFFFFF" d="M224,42.6v-6.8c0-1.2-0.7-2-2-2c-0.9,0-1.7,0.5-2.3,1.1l-0.2-0.9h-1.2v8.6h1.5v-6.4c0.5-0.5,1.1-0.9,1.7-0.9
	c0.6,0,0.8,0.4,0.8,1v6.4H224z"/>
<path fill="#FFFFFF" d="M236,31.6l-0.3-1.5h-7.3v1.5h2.9v10.9h1.6V31.6H236z"/>
<path fill="#FFFFFF" d="M243.1,42.6v-6.8c0-1.2-0.7-2-1.9-2c-0.8,0-1.6,0.4-2.1,1v-5.2l-1.5,0.3v12.7h1.5v-6.4
	c0.5-0.5,1.1-0.9,1.7-0.9c0.6,0,0.8,0.4,0.8,1v6.4H243.1z"/>
<path fill="#FFFFFF" d="M250.8,38.7v-0.6c0-2.3-0.8-4.3-2.9-4.3c-2,0-3.1,2-3.1,4.4c0,2.8,1.2,4.5,3.4,4.5c1,0,2-0.4,2.7-0.9
	l-0.2-1.4c-0.8,0.6-1.6,1-2.3,1c-1.2,0-1.8-1.1-1.9-2.8H250.8z M247.9,35c0.9,0,1.4,1,1.4,2.4h-2.9C246.5,36,247.1,35,247.9,35z"/>
<path fill="#FFFFFF" d="M263.5,39c0-1.6-0.8-2.6-2.1-3c1-0.5,1.6-1.4,1.6-2.6c0-1.8-1.2-3.2-3.7-3.2h-2.6v12.4h2.6
	C261.8,42.6,263.5,41.3,263.5,39z M261.5,33.4c0,1.1-0.7,2-2.2,2h-1v-3.9h1C260.9,31.5,261.5,32.4,261.5,33.4z M261.9,39
	c0,1.4-0.9,2.2-2.6,2.2h-1.1v-4.5h1C261.1,36.7,261.9,37.6,261.9,39z"/>
<path fill="#FFFFFF" d="M270.8,38.7v-0.6c0-2.3-0.8-4.3-2.9-4.3c-2,0-3.1,2-3.1,4.4c0,2.8,1.2,4.5,3.4,4.5c1,0,2-0.4,2.7-0.9
	l-0.2-1.4c-0.8,0.6-1.6,1-2.3,1c-1.2,0-1.8-1.1-1.9-2.8H270.8z M267.9,35c0.9,0,1.4,1,1.4,2.4h-2.9C266.5,36,267.1,35,267.9,35z"/>
<path fill="#FFFFFF" d="M277.7,42.6v-6.2c0-1.8-0.8-2.6-2.4-2.6c-1,0-1.8,0.3-2.6,0.7l0.2,1.4c0.7-0.4,1.4-0.8,2.1-0.8
	c0.7,0,1.2,0.4,1.2,1.3V37c-2.4,0.4-4.1,1.3-4.1,3.4c0,1.6,1,2.4,2.1,2.4c0.9,0,1.6-0.4,2.2-1l0.1,0.8H277.7z M276.2,40.5
	c-0.5,0.6-1.1,0.9-1.7,0.9c-0.6,0-0.9-0.4-0.9-1.2c0-0.9,0.6-1.8,2.6-2.1V40.5z"/>
<path fill="#FFFFFF" d="M283.6,42.6l-0.2-1.3c-0.2,0-0.4,0.1-0.6,0.1c-0.8,0-1-0.4-1-1v-5.1h1.7l-0.2-1.3h-1.5v-3.1l-1.5,0.2V34
	h-1.1v1.3h1.1v5.3c0,1.6,0.9,2.1,2.3,2.1C283.1,42.7,283.4,42.7,283.6,42.6z"/>
</svg>
