<?xml version="1.0" encoding="utf-8"?>
<!-- Generator: Adobe Illustrator 19.1.0, SVG Export Plug-In . SVG Version: 6.00 Build 0)  -->
<svg version="1.1" id="Layer_1" xmlns="http://www.w3.org/2000/svg" xmlns:xlink="http://www.w3.org/1999/xlink" x="0px" y="0px"
	 viewBox="0 0 128.8 12.9" enable-background="new 0 0 128.8 12.9" xml:space="preserve">
<g>
	<path fill="#FFFFFF" d="M5.8,2.3v-2H0v12.4h2.3V7.5h2.8l-0.3-2H2.3V2.3H5.8z"/>
	<path fill="#FFFFFF" d="M16,6.4C16,2.6,14.6,0,11.5,0C8.5,0,7,2.7,7,6.5c0,3.8,1.5,6.4,4.5,6.4C14.5,12.9,16,10.2,16,6.4z
		 M13.7,6.4c0,2.7-0.6,4.5-2.2,4.5C10,11,9.3,9.1,9.3,6.4s0.6-4.5,2.2-4.5C13.1,1.9,13.7,3.8,13.7,6.4z"/>
	<path fill="#FFFFFF" d="M23.3,12.8l2.2-0.4l-2.8-5.1c1.4-0.5,2.2-1.7,2.2-3.3c0-2.4-1.7-3.7-4.2-3.7h-2.9v12.4h2.3V7.7h0.5
		L23.3,12.8z M20.1,6.1v-4h0.6c1.4,0,2.1,0.7,2.1,1.9c0,1.3-0.8,2-2.1,2H20.1z"/>
	<path fill="#FFFFFF" d="M36.4,12.7l-0.3-2.1h-3.2V0.2h-2.3v12.4H36.4z"/>
	<path fill="#FFFFFF" d="M40.2,12.7V0.2h-2.3v12.4H40.2z"/>
	<path fill="#FFFFFF" d="M48.2,2.3v-2h-5.8v12.4h2.3V7.5h2.8l-0.3-2h-2.5V2.3H48.2z"/>
	<path fill="#FFFFFF" d="M57.1,2.3l-0.3-2h-7.6v2h2.7v10.4h2.3V2.3H57.1z"/>
	<path fill="#FFFFFF" d="M60.9,12.7V0.2h-2.3v12.4H60.9z"/>
	<path fill="#FFFFFF" d="M71,12.7V0.2h-2.1v7.5l-3.5-7.5h-2.2v12.4h2.1V4.8l3.9,7.9H71z"/>
	<path fill="#FFFFFF" d="M81,11.9V5.7h-4l0.3,1.8h1.6v3.1c-0.4,0.2-0.8,0.3-1.4,0.3c-1.7,0-2.4-1.9-2.4-4.5C75.1,3.7,76,2,77.7,2
		c1,0,1.9,0.4,2.7,1l0.3-2.1c-0.8-0.5-1.8-0.8-3-0.8c-3.3,0-4.9,2.6-4.9,6.5c0,3.8,1.4,6.4,4.6,6.4C78.9,12.9,80.1,12.4,81,11.9z"/>
	<path fill="#FFFFFF" d="M94.5,8.8V0.2h-2.3v8.6c0,1.3-0.5,2.1-1.6,2.1c-1.2,0-1.6-0.9-1.6-2.1V0.2h-2.3v8.6c0,2.5,1.3,4,3.9,4
		C93.1,12.9,94.5,11.4,94.5,8.8z"/>
	<path fill="#FFFFFF" d="M103,9.4c0-1.9-1.1-3-2.6-4c-1.2-0.8-1.8-1.4-1.8-2.2C98.6,2.6,99,2,99.9,2c0.7,0,1.4,0.2,2.1,0.7l0.3-2.1
		c-0.7-0.4-1.4-0.6-2.6-0.6c-2.1,0-3.4,1.4-3.4,3.3c0,1.8,1.2,2.8,2.6,3.8c1.3,1,1.8,1.5,1.8,2.4c0,0.8-0.6,1.3-1.5,1.3
		c-1,0-1.8-0.3-2.7-0.8l-0.3,2c0.9,0.5,2,0.7,3.2,0.7C101.6,12.8,103,11.5,103,9.4z"/>
	<path fill="#FFFFFF" d="M116.2,8.8V0.2h-2.3v8.6c0,1.3-0.5,2.1-1.6,2.1c-1.2,0-1.6-0.9-1.6-2.1V0.2h-2.3v8.6c0,2.5,1.3,4,3.9,4
		C114.7,12.9,116.2,11.4,116.2,8.8z"/>
	<path fill="#FFFFFF" d="M125.4,4.1c0-2.5-1.6-3.9-4.2-3.9h-2.9v12.4h2.3V8.1h0.5C123.7,8,125.4,6.7,125.4,4.1z M123.2,4.1
		c0,1.4-0.7,2.1-2.1,2.1h-0.5V2.1h0.6C122.5,2.1,123.2,2.8,123.2,4.1z"/>
	<path fill="#FFFFFF" d="M128.8,12.7V10h-2.3v2.7H128.8z"/>
</g>
</svg>
