<?xml version="1.0" encoding="utf-8"?>
<!-- Generator: Adobe Illustrator 19.1.0, SVG Export Plug-In . SVG Version: 6.00 Build 0)  -->
<svg version="1.1" xmlns="http://www.w3.org/2000/svg" xmlns:xlink="http://www.w3.org/1999/xlink" x="0px" y="0px"
	 viewBox="0 0 121 29" style="enable-background:new 0 0 121 29;" xml:space="preserve">
<style type="text/css">
	.st0{fill:#FFFFFF;}
	.st1{fill:#C01933;}
	.st2{display:none;}
	.st3{display:inline;fill:#C01933;}
	.st4{display:inline;fill:#FFFFFF;}
</style>
<g id="on">
	<rect x="0" y="0" class="st0" width="121" height="29"/>
	<path class="st1" d="M26.6,18.8l-0.2-1.4h-2.2v-7.1h-1.6v8.6H26.6z"/>
	<path class="st1" d="M32.6,18.8v-1.4h-2.7V15H32l-0.2-1.4h-1.9v-2.1h2.6v-1.4h-4.1v8.6H32.6z"/>
	<path class="st1" d="M35.7,18.8l0.5-2.2h2.2l0.5,2.3l1.6-0.3l-2.2-8.4h-1.8l-2.3,8.6H35.7z M37.3,12.1l0.8,3.3h-1.6L37.3,12.1z"/>
	<path class="st1" d="M46,18.9l1.5-0.3l-1.9-3.5c0.9-0.4,1.5-1.1,1.5-2.3c0-1.6-1.2-2.5-2.9-2.5h-2v8.6h1.6v-3.4h0.4L46,18.9z
		 M43.7,14.3v-2.7h0.4c1,0,1.4,0.5,1.4,1.3c0,0.9-0.5,1.4-1.5,1.4H43.7z"/>
	<path class="st1" d="M54.6,18.8v-8.6h-1.4v5.2l-2.4-5.2h-1.5v8.6h1.5v-5.4l2.7,5.4H54.6z"/>
	<path class="st1" d="M67.8,18.8l-0.4-8.6h-2l-1.5,6.4l-1.5-6.4h-2L60,18.8h1.4l0.2-6.4l1.5,6.4h1.5l1.5-6.4l0.3,6.4H67.8z"/>
	<path class="st1" d="M75.8,14.5c0-2.6-1-4.4-3.1-4.4c-2.1,0-3.1,1.8-3.1,4.5c0,2.6,1,4.4,3.1,4.4C74.7,19,75.8,17.1,75.8,14.5z
		 M74.2,14.5c0,1.8-0.4,3.1-1.5,3.1c-1.1,0-1.5-1.3-1.5-3.1c0-1.8,0.4-3.1,1.5-3.1C73.7,11.4,74.2,12.7,74.2,14.5z"/>
	<path class="st1" d="M81.6,18.9l1.5-0.3l-1.9-3.5c0.9-0.4,1.5-1.1,1.5-2.3c0-1.6-1.2-2.5-2.9-2.5h-2v8.6h1.6v-3.4h0.4L81.6,18.9z
		 M79.3,14.3v-2.7h0.4c1,0,1.4,0.5,1.4,1.3c0,0.9-0.5,1.4-1.5,1.4H79.3z"/>
	<path class="st1" d="M89.1,18.8v-1.4h-2.7V15h2.1l-0.2-1.4h-1.9v-2.1h2.6v-1.4h-4.1v8.6H89.1z"/>
	<path class="st1" d="M98.6,14.8l-3.4,3.4c-0.1,0.1-0.1,0.1-0.2,0.1c-0.1,0-0.1,0-0.2-0.1L94,17.4c-0.1-0.1-0.1-0.1-0.1-0.2
		c0-0.1,0-0.1,0.1-0.2l2.5-2.5L94,12.1c-0.1-0.1-0.1-0.1-0.1-0.2c0-0.1,0-0.1,0.1-0.2l0.8-0.8c0.1-0.1,0.1-0.1,0.2-0.1
		c0.1,0,0.1,0,0.2,0.1l3.4,3.4c0.1,0.1,0.1,0.1,0.1,0.2C98.7,14.6,98.6,14.7,98.6,14.8z"/>
</g>
<g id="off" class="st2">
	<rect x="0" y="0" class="st3" width="121" height="29"/>
	<path class="st4" d="M26.6,18.8l-0.2-1.4h-2.2v-7.1h-1.6v8.6H26.6z"/>
	<path class="st4" d="M32.6,18.8v-1.4h-2.7V15H32l-0.2-1.4h-1.9v-2.1h2.6v-1.4h-4.1v8.6H32.6z"/>
	<path class="st4" d="M35.7,18.8l0.5-2.2h2.2l0.5,2.3l1.6-0.3l-2.2-8.4h-1.8l-2.3,8.6H35.7z M37.3,12.1l0.8,3.3h-1.6L37.3,12.1z"/>
	<path class="st4" d="M46,18.9l1.5-0.3l-1.9-3.5c0.9-0.4,1.5-1.1,1.5-2.3c0-1.6-1.2-2.5-2.9-2.5h-2v8.6h1.6v-3.4h0.4L46,18.9z
		 M43.7,14.3v-2.7h0.4c1,0,1.4,0.5,1.4,1.3c0,0.9-0.5,1.4-1.5,1.4H43.7z"/>
	<path class="st4" d="M54.6,18.8v-8.6h-1.4v5.2l-2.4-5.2h-1.5v8.6h1.5v-5.4l2.7,5.4H54.6z"/>
	<path class="st4" d="M67.8,18.8l-0.4-8.6h-2l-1.5,6.4l-1.5-6.4h-2L60,18.8h1.4l0.2-6.4l1.5,6.4h1.5l1.5-6.4l0.3,6.4H67.8z"/>
	<path class="st4" d="M75.8,14.5c0-2.6-1-4.4-3.1-4.4c-2.1,0-3.1,1.8-3.1,4.5c0,2.6,1,4.4,3.1,4.4C74.7,19,75.8,17.1,75.8,14.5z
		 M74.2,14.5c0,1.8-0.4,3.1-1.5,3.1c-1.1,0-1.5-1.3-1.5-3.1c0-1.8,0.4-3.1,1.5-3.1C73.7,11.4,74.2,12.7,74.2,14.5z"/>
	<path class="st4" d="M81.6,18.9l1.5-0.3l-1.9-3.5c0.9-0.4,1.5-1.1,1.5-2.3c0-1.6-1.2-2.5-2.9-2.5h-2v8.6h1.6v-3.4h0.4L81.6,18.9z
		 M79.3,14.3v-2.7h0.4c1,0,1.4,0.5,1.4,1.3c0,0.9-0.5,1.4-1.5,1.4H79.3z"/>
	<path class="st4" d="M89.1,18.8v-1.4h-2.7V15h2.1l-0.2-1.4h-1.9v-2.1h2.6v-1.4h-4.1v8.6H89.1z"/>
	<path class="st4" d="M98.6,14.8l-3.4,3.4c-0.1,0.1-0.1,0.1-0.2,0.1c-0.1,0-0.1,0-0.2-0.1L94,17.4c-0.1-0.1-0.1-0.1-0.1-0.2
		c0-0.1,0-0.1,0.1-0.2l2.5-2.5L94,12.1c-0.1-0.1-0.1-0.1-0.1-0.2c0-0.1,0-0.1,0.1-0.2l0.8-0.8c0.1-0.1,0.1-0.1,0.2-0.1
		c0.1,0,0.1,0,0.2,0.1l3.4,3.4c0.1,0.1,0.1,0.1,0.1,0.2C98.7,14.6,98.6,14.7,98.6,14.8z"/>
</g>
</svg>
