<?xml version="1.0" encoding="utf-8"?>
<!-- Generator: Adobe Illustrator 19.1.0, SVG Export Plug-In . SVG Version: 6.00 Build 0)  -->
<svg version="1.1" id="Layer_1" xmlns="http://www.w3.org/2000/svg" xmlns:xlink="http://www.w3.org/1999/xlink" x="0px" y="0px"
	 viewBox="0 0 300 250" enable-background="new 0 0 300 250" xml:space="preserve">
<path fill="#FFFFFF" d="M17.1,60.7l1.5-0.4L15.6,55c1.5-0.4,2.5-1.6,2.5-3.4c0-2.1-1.5-3.5-3.9-3.5h-2.6v12.4h1.6v-5.4h0.7
	L17.1,60.7z M13.2,53.9v-4.3h0.9c1.6,0,2.4,0.8,2.4,2.1c0,1.4-0.8,2.2-2.4,2.2H13.2z"/>
<path fill="#FFFFFF" d="M25.8,56.7v-0.6c0-2.3-0.8-4.3-2.9-4.3c-2,0-3.1,2-3.1,4.4c0,2.8,1.2,4.5,3.4,4.5c1,0,2-0.4,2.7-0.9
	l-0.2-1.4c-0.8,0.6-1.6,1-2.3,1c-1.2,0-1.8-1.1-1.9-2.8H25.8z M22.8,53c0.9,0,1.4,1,1.4,2.4h-2.9C21.5,54,22,53,22.8,53z"/>
<path fill="#FFFFFF" d="M32.7,60.6v-6.2c0-1.8-0.8-2.6-2.4-2.6c-1,0-1.8,0.3-2.6,0.7l0.2,1.4c0.7-0.4,1.4-0.8,2.1-0.8
	c0.7,0,1.2,0.4,1.2,1.3V55c-2.4,0.4-4.1,1.3-4.1,3.4c0,1.6,1,2.4,2.1,2.4c0.9,0,1.6-0.4,2.2-1l0.1,0.8H32.7z M31.1,58.5
	c-0.5,0.6-1.1,0.9-1.7,0.9c-0.6,0-0.9-0.4-0.9-1.2c0-0.9,0.6-1.8,2.6-2.1V58.5z"/>
<path fill="#FFFFFF" d="M40.7,60.6v-13l-1.5,0.3v4.3c-0.4-0.2-1-0.3-1.5-0.3c-1.6,0-3.2,1.4-3.2,4.6c0,3,1.4,4.3,2.9,4.3
	c0.9,0,1.6-0.5,2.1-1.1l0.2,1H40.7z M39.2,58.3c-0.5,0.6-1,1.1-1.6,1.1c-0.9,0-1.6-0.9-1.6-3c0-2.3,0.8-3.2,1.9-3.2
	c0.5,0,0.8,0.1,1.3,0.4V58.3z"/>
<path fill="#FFFFFF" d="M48.5,56.7v-0.6c0-2.3-0.8-4.3-2.9-4.3c-2,0-3.1,2-3.1,4.4c0,2.8,1.2,4.5,3.4,4.5c1,0,2-0.4,2.7-0.9
	l-0.2-1.4c-0.8,0.6-1.6,1-2.3,1c-1.2,0-1.8-1.1-1.9-2.8H48.5z M45.5,53c0.9,0,1.4,1,1.4,2.4h-2.9C44.2,54,44.7,53,45.5,53z"/>
<path fill="#FFFFFF" d="M54.2,53.3L54,51.8c-1,0.1-1.8,0.7-2.3,1.5L51.5,52h-1.2v8.6h1.5v-5.7C52.2,54.1,53.1,53.4,54.2,53.3z"/>
<path fill="#FFFFFF" d="M60.6,58.3c0-1.3-0.7-2-2.3-2.8c-1.1-0.5-1.4-1-1.4-1.5c0-0.6,0.5-0.9,1-0.9c0.8,0,1.5,0.3,2,0.6l0.2-1.4
	c-0.5-0.3-1.3-0.5-2.2-0.5c-1.5,0-2.4,1.1-2.4,2.3c0,1.2,0.6,1.9,2.2,2.7c1.2,0.6,1.5,1.1,1.5,1.7c0,0.6-0.5,1-1.3,1
	c-0.8,0-1.5-0.3-2.4-0.9L55.3,60c0.7,0.4,1.6,0.7,2.6,0.7C59.6,60.8,60.6,59.7,60.6,58.3z"/>
<path fill="#FFFFFF" d="M64,48.2h-1.7l-0.2,3.5l0.9,0.2L64,48.2z"/>
<path fill="#FFFFFF" d="M76.5,59.8l-0.2-1.6c-0.9,0.7-1.6,1.1-2.6,1.1c-1.9,0-2.8-2.1-2.8-5c0-2.8,0.8-5,2.7-5c1,0,1.6,0.3,2.4,1
	l0.3-1.6c-0.7-0.6-1.5-0.9-2.7-0.9c-2.9,0-4.3,2.8-4.3,6.5c0,3.6,1.4,6.4,4.3,6.4C74.8,60.8,75.7,60.4,76.5,59.8z"/>
<path fill="#FFFFFF" d="M83.8,60.6v-6.8c0-1.2-0.7-2-1.9-2c-0.8,0-1.6,0.4-2.1,1v-5.2l-1.5,0.3v12.7h1.5v-6.4
	c0.5-0.5,1.1-0.9,1.7-0.9c0.6,0,0.8,0.4,0.8,1v6.4H83.8z"/>
<path fill="#FFFFFF" d="M92.1,56.3c0-2.8-1.3-4.5-3.3-4.5c-2,0-3.3,1.7-3.3,4.5s1.3,4.5,3.3,4.5C90.8,60.8,92.1,59.1,92.1,56.3z
	 M90.5,56.3c0,1.8-0.6,3.2-1.7,3.2c-1.1,0-1.7-1.4-1.7-3.2c0-1.8,0.6-3.2,1.7-3.2C89.9,53.1,90.5,54.5,90.5,56.3z"/>
<path fill="#FFFFFF" d="M95.7,49.2c0-0.5-0.4-1-1-1c-0.5,0-1,0.4-1,1c0,0.5,0.4,1,1,1C95.2,50.2,95.7,49.8,95.7,49.2z M95.5,60.6V52
	h-1.5v8.6H95.5z"/>
<path fill="#FFFFFF" d="M102.9,60l-0.2-1.4c-0.7,0.6-1.2,0.8-1.8,0.8c-1.3,0-2-1.3-2-3.1c0-1.7,0.6-3.1,1.8-3.1
	c0.7,0,1.2,0.2,1.9,0.8l0.3-1.5c-0.4-0.3-1-0.6-2.1-0.6c-2.1,0-3.4,1.7-3.4,4.5c0,2.7,1.2,4.5,3.3,4.5
	C101.8,60.8,102.4,60.4,102.9,60z"/>
<path fill="#FFFFFF" d="M110.3,56.7v-0.6c0-2.3-0.8-4.3-2.9-4.3c-2,0-3.1,2-3.1,4.4c0,2.8,1.2,4.5,3.4,4.5c1,0,2-0.4,2.7-0.9
	l-0.2-1.4c-0.8,0.6-1.6,1-2.3,1c-1.2,0-1.8-1.1-1.9-2.8H110.3z M107.4,53c0.9,0,1.4,1,1.4,2.4h-2.9C106,54,106.5,53,107.4,53z"/>
<path fill="#FFFFFF" d="M116.9,60.6l1-3.8h3.5l1,3.9l1.5-0.3l-3.4-12.3h-1.7l-3.5,12.5H116.9z M119.6,50.1l1.4,5.2h-2.8L119.6,50.1z
	"/>
<path fill="#FFFFFF" d="M134.5,52H133l-1.3,6.3l-1.4-6.3h-1.5l-1.3,6.4l-1.4-6.5l-1.5,0.3l2.2,8.5h1.4l1.4-6.6l1.4,6.6h1.4L134.5,52
	z"/>
<path fill="#FFFFFF" d="M141.1,60.6v-6.2c0-1.8-0.8-2.6-2.4-2.6c-1,0-1.8,0.3-2.6,0.7l0.2,1.4c0.7-0.4,1.4-0.8,2.1-0.8
	c0.7,0,1.2,0.4,1.2,1.3V55c-2.4,0.4-4.1,1.3-4.1,3.4c0,1.6,1,2.4,2.1,2.4c0.9,0,1.6-0.4,2.2-1l0.1,0.8H141.1z M139.6,58.5
	c-0.5,0.6-1.1,0.9-1.7,0.9c-0.6,0-0.9-0.4-0.9-1.2c0-0.9,0.6-1.8,2.6-2.1V58.5z"/>
<path fill="#FFFFFF" d="M147.2,53.3l-0.2-1.5c-1,0.1-1.8,0.7-2.3,1.5l-0.2-1.3h-1.2v8.6h1.5v-5.7C145.2,54.1,146.1,53.4,147.2,53.3z
	"/>
<path fill="#FFFFFF" d="M154.6,60.6v-13l-1.5,0.3v4.3c-0.4-0.2-1-0.3-1.5-0.3c-1.6,0-3.2,1.4-3.2,4.6c0,3,1.4,4.3,2.9,4.3
	c0.9,0,1.6-0.5,2.1-1.1l0.2,1H154.6z M153.1,58.3c-0.5,0.6-1,1.1-1.6,1.1c-0.9,0-1.6-0.9-1.6-3c0-2.3,0.8-3.2,1.9-3.2
	c0.5,0,0.8,0.1,1.3,0.4V58.3z"/>
<path fill="#FFFFFF" d="M161.7,58.3c0-1.3-0.7-2-2.3-2.8c-1.1-0.5-1.4-1-1.4-1.5c0-0.6,0.5-0.9,1-0.9c0.8,0,1.5,0.3,2,0.6l0.2-1.4
	c-0.5-0.3-1.3-0.5-2.2-0.5c-1.5,0-2.4,1.1-2.4,2.3c0,1.2,0.6,1.9,2.2,2.7c1.2,0.6,1.5,1.1,1.5,1.7c0,0.6-0.5,1-1.3,1
	c-0.8,0-1.5-0.3-2.4-0.9l-0.2,1.5c0.7,0.4,1.6,0.7,2.6,0.7C160.7,60.8,161.7,59.7,161.7,58.3z"/>
<path fill="#FFFFFF" d="M170.9,49.2l-0.2-1.4c-0.1,0-0.4-0.1-0.6-0.1c-1.3,0-2.3,0.6-2.3,2.3V52h-1.1v1.3h1.1v7.3h1.5v-7.3h1.6
	l-0.2-1.3h-1.4v-1.7c0-0.8,0.3-1.1,1-1.1C170.4,49.1,170.7,49.2,170.9,49.2z"/>
<path fill="#FFFFFF" d="M178.4,56.3c0-2.8-1.3-4.5-3.3-4.5c-2,0-3.3,1.7-3.3,4.5s1.3,4.5,3.3,4.5C177,60.8,178.4,59.1,178.4,56.3z
	 M176.8,56.3c0,1.8-0.6,3.2-1.7,3.2c-1.1,0-1.7-1.4-1.7-3.2c0-1.8,0.6-3.2,1.7-3.2C176.2,53.1,176.8,54.5,176.8,56.3z"/>
<path fill="#FFFFFF" d="M184,53.3l-0.2-1.5c-1,0.1-1.8,0.7-2.3,1.5l-0.2-1.3h-1.2v8.6h1.5v-5.7C182,54.1,182.9,53.4,184,53.3z"/>
<path fill="#FFFFFF" d="M193.2,60.6l-0.2-1.3c-0.2,0-0.4,0.1-0.6,0.1c-0.8,0-1-0.4-1-1v-5.1h1.7l-0.2-1.3h-1.5v-3.1l-1.5,0.2V52
	h-1.1v1.3h1.1v5.3c0,1.6,0.9,2.1,2.3,2.1C192.6,60.7,192.9,60.7,193.2,60.6z"/>
<path fill="#FFFFFF" d="M200.5,60.6v-6.8c0-1.2-0.7-2-1.9-2c-0.8,0-1.6,0.4-2.1,1v-5.2l-1.5,0.3v12.7h1.5v-6.4
	c0.5-0.5,1.1-0.9,1.7-0.9c0.6,0,0.8,0.4,0.8,1v6.4H200.5z"/>
<path fill="#FFFFFF" d="M208.3,56.7v-0.6c0-2.3-0.8-4.3-2.9-4.3c-2,0-3.1,2-3.1,4.4c0,2.8,1.2,4.5,3.4,4.5c1,0,2-0.4,2.7-0.9
	l-0.2-1.4c-0.8,0.6-1.6,1-2.3,1c-1.2,0-1.8-1.1-1.9-2.8H208.3z M205.3,53c0.9,0,1.4,1,1.4,2.4h-2.9C204,54,204.5,53,205.3,53z"/>
<path fill="#FFFFFF" d="M217.6,49.2l-0.2-1.4c-0.1,0-0.4-0.1-0.6-0.1c-1.3,0-2.3,0.6-2.3,2.3V52h-1.1v1.3h1.1v7.3h1.5v-7.3h1.6
	l-0.2-1.3h-1.4v-1.7c0-0.8,0.3-1.1,1-1.1C217.1,49.1,217.4,49.2,217.6,49.2z"/>
<path fill="#FFFFFF" d="M225.1,56.3c0-2.8-1.3-4.5-3.3-4.5c-2,0-3.3,1.7-3.3,4.5s1.3,4.5,3.3,4.5C223.7,60.8,225.1,59.1,225.1,56.3z
	 M223.5,56.3c0,1.8-0.6,3.2-1.7,3.2c-1.1,0-1.7-1.4-1.7-3.2c0-1.8,0.6-3.2,1.7-3.2C222.9,53.1,223.5,54.5,223.5,56.3z"/>
<path fill="#FFFFFF" d="M232.4,60.6V52h-1.5v6.4c-0.5,0.5-1.1,0.9-1.7,0.9c-0.6,0-0.9-0.4-0.9-1V52h-1.5v6.8c0,1.2,0.7,2,2,2
	c0.9,0,1.7-0.5,2.3-1.1l0.2,0.9H232.4z"/>
<path fill="#FFFFFF" d="M238.4,53.3l-0.2-1.5c-1,0.1-1.8,0.7-2.3,1.5l-0.2-1.3h-1.2v8.6h1.5v-5.7C236.4,54.1,237.3,53.4,238.4,53.3z
	"/>
<path fill="#FFFFFF" d="M243.7,60.6l-0.2-1.3c-0.2,0-0.4,0.1-0.6,0.1c-0.8,0-1-0.4-1-1v-5.1h1.7l-0.2-1.3h-1.5v-3.1l-1.5,0.2V52
	h-1.1v1.3h1.1v5.3c0,1.6,0.9,2.1,2.3,2.1C243.2,60.7,243.5,60.7,243.7,60.6z"/>
<path fill="#FFFFFF" d="M251.1,60.6v-6.8c0-1.2-0.7-2-1.9-2c-0.8,0-1.6,0.4-2.1,1v-5.2l-1.5,0.3v12.7h1.5v-6.4
	c0.5-0.5,1.1-0.9,1.7-0.9c0.6,0,0.8,0.4,0.8,1v6.4H251.1z"/>
</svg>
