<?xml version="1.0" encoding="utf-8"?>
<!-- Generator: Adobe Illustrator 19.1.0, SVG Export Plug-In . SVG Version: 6.00 Build 0)  -->
<svg version="1.1" id="Layer_1" xmlns="http://www.w3.org/2000/svg" xmlns:xlink="http://www.w3.org/1999/xlink" x="0px" y="0px"
	 viewBox="0 0 300 250" enable-background="new 0 0 300 250" xml:space="preserve">
<g>
	<path fill="#FFFFFF" d="M37.6,16.9l-1.1-6.8H11.1v6.8h9.1v34.6h7.7V16.9H37.6z"/>
	<path fill="#FFFFFF" d="M66.6,51.6V10.2h-7.7v16.3H48.2V10.2h-7.7v41.4h7.7V33.3h10.7v18.2H66.6z"/>
	<path fill="#FFFFFF" d="M77,51.6L79.5,41H90l2.6,11l7.7-1.4L89.4,10h-8.8L69.5,51.6H77z M84.8,19l3.8,15.8h-7.6L84.8,19z"/>
	<path fill="#FFFFFF" d="M128.9,51.6V10.2h-7v25.1l-11.8-25.1h-7.3v41.4h7V25.3l12.9,26.3H128.9z"/>
	<path fill="#FFFFFF" d="M160.8,50.6l-11.9-21.4l10.7-19h-7.9l-9.6,17.9V10.2h-7.7v41.4h7.7V31.7L153.3,52L160.8,50.6z"/>
	<path fill="#FFFFFF" d="M202.2,10.2h-8l-7.1,18l-7.3-18.4l-8,1.3L183,36.2v15.4h7.6V36.1L202.2,10.2z"/>
	<path fill="#FFFFFF" d="M233.3,30.8c0-12.6-4.9-21.4-15-21.4c-10.1,0-15.1,8.9-15.1,21.5c0,12.6,4.9,21.4,15,21.4
		C228.2,52.4,233.3,43.5,233.3,30.8z M225.5,30.9c0,8.9-2.1,15.1-7.3,15.1c-5.3,0-7.3-6.1-7.3-15.1s2-15.1,7.3-15.1
		C223.4,15.8,225.5,21.9,225.5,30.9z"/>
	<path fill="#FFFFFF" d="M263.3,38.7V10.2h-7.6v28.6c0,4.4-1.7,7.1-5.5,7.1c-3.9,0-5.4-2.9-5.4-7.1V10.2h-7.7v28.7
		c0,8.4,4.2,13.4,13,13.4C258.6,52.3,263.3,47.4,263.3,38.7z"/>
</g>
</svg>
