<?xml version="1.0" encoding="utf-8"?>
<!-- Generator: Adobe Illustrator 19.1.0, SVG Export Plug-In . SVG Version: 6.00 Build 0)  -->
<svg version="1.1" id="Layer_1" xmlns="http://www.w3.org/2000/svg" xmlns:xlink="http://www.w3.org/1999/xlink" x="0px" y="0px"
	 viewBox="166.5 282.6 269.6 13.2" enable-background="new 166.5 282.6 269.6 13.2" xml:space="preserve">
<path fill="#FFFFFF" d="M179.4,283.2h-1.6l-1.9,9.7l-2.3-9.7H172l-2.2,9.7L168,283l-1.5,0.3l2.6,12.2h1.5l2.2-10l2.3,10h1.6
	L179.4,283.2z"/>
<path fill="#FFFFFF" d="M186.5,291.7v-0.6c0-2.3-0.8-4.3-2.9-4.3c-2,0-3.1,2-3.1,4.4c0,2.8,1.2,4.5,3.4,4.5c1,0,2-0.4,2.7-0.9
	l-0.2-1.4c-0.8,0.6-1.6,1-2.3,1c-1.2,0-1.8-1.1-1.9-2.8L186.5,291.7L186.5,291.7z M183.5,288c0.9,0,1.4,1,1.4,2.4H182
	C182.2,289,182.7,288,183.5,288z"/>
<path fill="#FFFFFF" d="M190.1,283.2h-1.8l0.4,3.5l0.9,0.2L190.1,283.2z"/>
<path fill="#FFFFFF" d="M196.5,288.3l-0.2-1.5c-1,0.1-1.8,0.7-2.3,1.5l-0.2-1.3h-1.2v8.6h1.5v-5.7
	C194.5,289.1,195.4,288.4,196.5,288.3z"/>
<path fill="#FFFFFF" d="M203.6,291.7v-0.6c0-2.3-0.8-4.3-2.9-4.3c-2,0-3.1,2-3.1,4.4c0,2.8,1.2,4.5,3.4,4.5c1,0,2-0.4,2.7-0.9
	l-0.2-1.4c-0.8,0.6-1.6,1-2.3,1c-1.2,0-1.8-1.1-1.9-2.8L203.6,291.7L203.6,291.7z M200.7,288c0.9,0,1.4,1,1.4,2.4h-2.9
	C199.3,289,199.9,288,200.7,288z"/>
<path fill="#FFFFFF" d="M214.9,295.6v-6.8c0-1.2-0.7-2-1.9-2c-0.8,0-1.6,0.4-2.1,1v-5.2l-1.5,0.3v12.7h1.5v-6.4
	c0.5-0.5,1.1-0.9,1.7-0.9c0.6,0,0.8,0.4,0.8,1v6.4h1.5V295.6z"/>
<path fill="#FFFFFF" d="M223.1,291.3c0-2.8-1.3-4.5-3.3-4.5s-3.3,1.7-3.3,4.5s1.3,4.5,3.3,4.5S223.1,294.1,223.1,291.3z
	 M221.6,291.3c0,1.8-0.6,3.2-1.7,3.2c-1.1,0-1.7-1.4-1.7-3.2c0-1.8,0.6-3.2,1.7-3.2C221,288.1,221.6,289.5,221.6,291.3z"/>
<path fill="#FFFFFF" d="M230.5,295.6v-6.8c0-1.2-0.7-2-2-2c-0.9,0-1.7,0.5-2.3,1.1L226,287h-1.2v8.6h1.5v-6.4
	c0.5-0.5,1.1-0.9,1.7-0.9c0.6,0,0.8,0.4,0.8,1v6.4h1.7V295.6z"/>
<path fill="#FFFFFF" d="M238.7,291.3c0-2.8-1.3-4.5-3.3-4.5s-3.3,1.7-3.3,4.5s1.3,4.5,3.3,4.5S238.7,294.1,238.7,291.3z
	 M237.2,291.3c0,1.8-0.6,3.2-1.7,3.2c-1.1,0-1.7-1.4-1.7-3.2c0-1.8,0.6-3.2,1.7-3.2C236.6,288.1,237.2,289.5,237.2,291.3z"/>
<path fill="#FFFFFF" d="M244.4,288.3l-0.2-1.5c-1,0.1-1.8,0.7-2.3,1.5l-0.2-1.3h-1.2v8.6h1.5v-5.7
	C242.4,289.1,243.3,288.4,244.4,288.3z"/>
<path fill="#FFFFFF" d="M251.5,291.7v-0.6c0-2.3-0.8-4.3-2.9-4.3c-2,0-3.1,2-3.1,4.4c0,2.8,1.2,4.5,3.4,4.5c1,0,2-0.4,2.7-0.9
	l-0.2-1.4c-0.8,0.6-1.6,1-2.3,1c-1.2,0-1.8-1.1-1.9-2.8L251.5,291.7L251.5,291.7z M248.6,288c0.9,0,1.4,1,1.4,2.4h-2.9
	C247.2,289,247.8,288,248.6,288z"/>
<path fill="#FFFFFF" d="M259.2,295.6v-13l-1.5,0.3v4.3c-0.4-0.2-1-0.3-1.5-0.3c-1.6,0-3.2,1.4-3.2,4.6c0,3,1.4,4.3,2.9,4.3
	c0.9,0,1.6-0.5,2.1-1.1l0.2,1L259.2,295.6L259.2,295.6z M257.7,293.3c-0.5,0.6-1,1.1-1.6,1.1c-0.9,0-1.6-0.9-1.6-3
	c0-2.3,0.8-3.2,1.9-3.2c0.5,0,0.8,0.1,1.3,0.4L257.7,293.3L257.7,293.3z"/>
<path fill="#FFFFFF" d="M269,295.6l-0.2-1.3c-0.2,0-0.4,0.1-0.6,0.1c-0.8,0-1-0.4-1-1v-5.1h1.7l-0.2-1.3h-1.5v-3.1l-1.5,0.2v2.9
	h-1.1v1.3h1.1v5.3c0,1.6,0.9,2.1,2.3,2.1C268.5,295.7,268.8,295.7,269,295.6z"/>
<path fill="#FFFFFF" d="M276.9,291.3c0-2.8-1.3-4.5-3.3-4.5s-3.3,1.7-3.3,4.5s1.3,4.5,3.3,4.5S276.9,294.1,276.9,291.3z
	 M275.3,291.3c0,1.8-0.6,3.2-1.7,3.2s-1.7-1.4-1.7-3.2c0-1.8,0.6-3.2,1.7-3.2C274.7,288.1,275.3,289.5,275.3,291.3z"/>
<path fill="#FFFFFF" d="M288.8,291.1c0-3-1.3-4.3-2.8-4.3c-0.9,0-1.5,0.4-1.9,0.9v-5.1l-1.5,0.3v12.3c0.9,0.3,1.9,0.5,2.8,0.5
	C287.2,295.7,288.8,294.3,288.8,291.1z M287.2,291.2c0,2.3-0.8,3.2-1.9,3.2c-0.4,0-0.8-0.1-1.3-0.3v-4.8c0.5-0.6,1.1-1.1,1.7-1.1
	C286.5,288.2,287.2,289.1,287.2,291.2z"/>
<path fill="#FFFFFF" d="M296.2,291.7v-0.6c0-2.3-0.8-4.3-2.9-4.3c-2,0-3.1,2-3.1,4.4c0,2.8,1.2,4.5,3.4,4.5c1,0,2-0.4,2.7-0.9
	l-0.2-1.4c-0.8,0.6-1.6,1-2.3,1c-1.2,0-1.8-1.1-1.9-2.8L296.2,291.7L296.2,291.7z M293.2,288c0.9,0,1.4,1,1.4,2.4h-2.9
	C291.9,289,292.4,288,293.2,288z"/>
<path fill="#FFFFFF" d="M307.5,295.6v-6.8c0-1.2-0.7-2-2-2c-0.9,0-1.7,0.5-2.3,1.1L303,287h-1.2v8.6h1.5v-6.4
	c0.5-0.5,1.1-0.9,1.7-0.9s0.8,0.4,0.8,1v6.4h1.7V295.6z"/>
<path fill="#FFFFFF" d="M314.7,295.6v-6.2c0-1.8-0.8-2.6-2.4-2.6c-1,0-1.8,0.3-2.6,0.7l0.2,1.4c0.7-0.4,1.4-0.8,2.1-0.8
	s1.2,0.4,1.2,1.3v0.5c-2.4,0.4-4.1,1.3-4.1,3.4c0,1.6,1,2.4,2.1,2.4c0.9,0,1.6-0.4,2.2-1l0.1,0.8h1.2V295.6z M313.1,293.5
	c-0.5,0.6-1.1,0.9-1.7,0.9s-0.9-0.4-0.9-1.2c0-0.9,0.6-1.8,2.6-2.1V293.5z"/>
<path fill="#FFFFFF" d="M326.3,295.6v-6.8c0-1.2-0.6-1.9-1.9-1.9c-0.9,0-1.6,0.5-2.3,1c-0.3-0.7-0.8-1-1.7-1c-0.9,0-1.7,0.5-2.3,1.1
	l-0.1-1h-1.2v8.6h1.5v-6.5c0.5-0.5,1.1-0.9,1.6-0.9c0.6,0,0.8,0.4,0.8,1v6.4h1.5v-6.5c0.5-0.5,1.1-0.9,1.6-0.9c0.6,0,0.8,0.4,0.8,1
	v6.4H326.3z"/>
<path fill="#FFFFFF" d="M334.1,291.7v-0.6c0-2.3-0.8-4.3-2.9-4.3c-2,0-3.1,2-3.1,4.4c0,2.8,1.2,4.5,3.4,4.5c1,0,2-0.4,2.7-0.9
	l-0.2-1.4c-0.8,0.6-1.6,1-2.3,1c-1.2,0-1.8-1.1-1.9-2.8L334.1,291.7L334.1,291.7z M331.1,288c0.9,0,1.4,1,1.4,2.4h-2.9
	C329.8,289,330.3,288,331.1,288z"/>
<path fill="#FFFFFF" d="M341.8,295.6v-13l-1.5,0.3v4.3c-0.4-0.2-1-0.3-1.5-0.3c-1.6,0-3.2,1.4-3.2,4.6c0,3,1.4,4.3,2.9,4.3
	c0.9,0,1.6-0.5,2.1-1.1l0.2,1L341.8,295.6L341.8,295.6z M340.2,293.3c-0.5,0.6-1,1.1-1.6,1.1c-0.9,0-1.6-0.9-1.6-3
	c0-2.3,0.8-3.2,1.9-3.2c0.5,0,0.8,0.1,1.3,0.4L340.2,293.3L340.2,293.3z"/>
<path fill="#FFFFFF" d="M358.4,295.6l-0.6-12.4h-1.9l-2.9,10.2l-2.9-10.2h-1.9l-0.6,12.4h1.4l0.4-9.7l2.8,9.8h1.4l2.7-9.8l0.5,9.7
	H358.4z"/>
<path fill="#FFFFFF" d="M366.6,291.3c0-2.8-1.3-4.5-3.3-4.5s-3.3,1.7-3.3,4.5s1.3,4.5,3.3,4.5C365.3,295.8,366.6,294.1,366.6,291.3z
	 M365,291.3c0,1.8-0.6,3.2-1.7,3.2s-1.7-1.4-1.7-3.2c0-1.8,0.6-3.2,1.7-3.2C364.4,288.1,365,289.5,365,291.3z"/>
<path fill="#FFFFFF" d="M373.2,293.3c0-1.3-0.7-2-2.3-2.8c-1.1-0.5-1.4-1-1.4-1.5c0-0.6,0.4-0.9,1-0.9c0.8,0,1.5,0.3,2,0.6l0.2-1.4
	c-0.5-0.3-1.3-0.5-2.2-0.5c-1.5,0-2.4,1.1-2.4,2.3c0,1.2,0.6,1.9,2.2,2.7c1.2,0.6,1.5,1.1,1.5,1.7s-0.5,1-1.3,1s-1.5-0.3-2.4-0.9
	l-0.2,1.5c0.7,0.4,1.6,0.7,2.6,0.7C372.2,295.8,373.2,294.7,373.2,293.3z"/>
<path fill="#FFFFFF" d="M378.6,295.6l-0.2-1.3c-0.2,0-0.4,0.1-0.6,0.1c-0.8,0-1-0.4-1-1v-5.1h1.7l-0.2-1.3h-1.5v-3.1l-1.5,0.2v2.9
	h-1.1v1.3h1.1v5.3c0,1.6,0.9,2.1,2.3,2.1C378.1,295.7,378.4,295.7,378.6,295.6z"/>
<path fill="#FFFFFF" d="M385.2,295.6l1-3.8h3.5l1,3.9l1.5-0.3l-3.4-12.3h-1.7l-3.5,12.5L385.2,295.6L385.2,295.6z M387.9,285.1
	l1.4,5.2h-2.8L387.9,285.1z"/>
<path fill="#FFFFFF" d="M399.6,295.6v-13l-1.5,0.3v4.3c-0.4-0.2-1-0.3-1.5-0.3c-1.6,0-3.2,1.4-3.2,4.6c0,3,1.4,4.3,2.9,4.3
	c0.9,0,1.6-0.5,2.1-1.1l0.2,1L399.6,295.6L399.6,295.6z M398,293.3c-0.5,0.6-1,1.1-1.6,1.1c-0.9,0-1.6-0.9-1.6-3
	c0-2.3,0.8-3.2,1.9-3.2c0.5,0,0.8,0.1,1.3,0.4L398,293.3L398,293.3z"/>
<path fill="#FFFFFF" d="M411.2,295.6v-6.8c0-1.2-0.6-1.9-1.9-1.9c-0.9,0-1.6,0.5-2.3,1c-0.3-0.7-0.8-1-1.7-1c-0.9,0-1.7,0.5-2.3,1.1
	l-0.2-0.9h-1.2v8.6h1.5v-6.5c0.5-0.5,1.1-0.9,1.6-0.9c0.6,0,0.8,0.4,0.8,1v6.4h1.5v-6.5c0.5-0.5,1.1-0.9,1.6-0.9
	c0.6,0,0.8,0.4,0.8,1v6.4h1.8V295.6z"/>
<path fill="#FFFFFF" d="M415.2,284.2c0-0.5-0.4-1-1-1c-0.5,0-1,0.5-1,1s0.4,1,1,1C414.8,285.2,415.2,284.8,415.2,284.2z M415,295.6
	V287h-1.5v8.6H415z"/>
<path fill="#FFFFFF" d="M421.2,288.3l-0.2-1.5c-1,0.1-1.8,0.7-2.3,1.5l-0.2-1.3h-1.2v8.6h1.5v-5.7
	C419.2,289.1,420.1,288.4,421.2,288.3z"/>
<path fill="#FFFFFF" d="M428.4,291.7v-0.6c0-2.3-0.8-4.3-2.9-4.3c-2,0-3.1,2-3.1,4.4c0,2.8,1.2,4.5,3.4,4.5c1,0,2-0.4,2.7-0.9
	l-0.2-1.4c-0.8,0.6-1.6,1-2.3,1c-1.2,0-1.8-1.1-1.9-2.8L428.4,291.7L428.4,291.7z M425.4,288c0.9,0,1.4,1,1.4,2.4h-2.9
	C424.1,289,424.6,288,425.4,288z"/>
<path fill="#FFFFFF" d="M436.1,295.6v-13l-1.5,0.3v4.3c-0.4-0.2-1-0.3-1.5-0.3c-1.6,0-3.2,1.4-3.2,4.6c0,3,1.4,4.3,2.9,4.3
	c0.9,0,1.6-0.5,2.1-1.1l0.2,1L436.1,295.6L436.1,295.6z M434.5,293.3c-0.5,0.6-1,1.1-1.6,1.1c-0.9,0-1.6-0.9-1.6-3
	c0-2.3,0.8-3.2,1.9-3.2c0.5,0,0.8,0.1,1.3,0.4L434.5,293.3L434.5,293.3z"/>
</svg>
