<?xml version="1.0" encoding="utf-8"?>
<!-- Generator: Adobe Illustrator 19.1.0, SVG Export Plug-In . SVG Version: 6.00 Build 0)  -->
<svg version="1.1" id="Layer_1" xmlns="http://www.w3.org/2000/svg" xmlns:xlink="http://www.w3.org/1999/xlink" x="0px" y="0px"
	 viewBox="0 0 300 250" enable-background="new 0 0 300 250" xml:space="preserve">
<path fill="#FFFFFF" d="M17.5,70H16l-1.7,6.8l-1.8-6.9L11,70.1l2.6,8.6l-0.3,0.9c-0.3,0.7-0.7,1-1.2,1c-0.3,0-0.5-0.1-0.7-0.1
	l0.2,1.4c0.1,0,0.3,0.1,0.5,0.1c1.3,0,2.1-0.6,2.5-2.1L17.5,70z"/>
<path fill="#FFFFFF" d="M24.6,74.7v-0.6c0-2.3-0.8-4.3-2.9-4.3c-2,0-3.1,2-3.1,4.4c0,2.8,1.2,4.5,3.4,4.5c1,0,2-0.4,2.7-0.9
	l-0.2-1.4c-0.8,0.6-1.6,1-2.3,1c-1.2,0-1.8-1.1-1.9-2.8H24.6z M21.6,71c0.9,0,1.4,1,1.4,2.4h-2.9C20.3,72,20.8,71,21.6,71z"/>
<path fill="#FFFFFF" d="M31.5,78.6v-6.2c0-1.8-0.8-2.6-2.4-2.6c-1,0-1.8,0.3-2.6,0.7l0.2,1.4c0.7-0.4,1.4-0.8,2.1-0.8
	c0.7,0,1.2,0.4,1.2,1.3V73c-2.4,0.4-4.1,1.3-4.1,3.4c0,1.6,1,2.4,2.1,2.4c0.9,0,1.6-0.4,2.2-1l0.1,0.8H31.5z M29.9,76.5
	c-0.5,0.6-1.1,0.9-1.7,0.9c-0.6,0-0.9-0.4-0.9-1.2c0-0.9,0.6-1.8,2.6-2.1V76.5z"/>
<path fill="#FFFFFF" d="M37.5,71.3l-0.2-1.5c-1,0.1-1.8,0.7-2.3,1.5L34.8,70h-1.2v8.6h1.5v-5.7C35.5,72.1,36.4,71.4,37.5,71.3z"/>
<path fill="#FFFFFF" d="M46.8,71.3l-0.2-1.5c-1,0.1-1.8,0.7-2.3,1.5L44.1,70h-1.2v8.6h1.5v-5.7C44.9,72.1,45.8,71.4,46.8,71.3z"/>
<path fill="#FFFFFF" d="M54,78.6V70h-1.5v6.4c-0.5,0.5-1.1,0.9-1.7,0.9c-0.6,0-0.9-0.4-0.9-1V70h-1.5v6.8c0,1.2,0.7,2,2,2
	c0.9,0,1.7-0.5,2.3-1.1l0.2,0.9H54z"/>
<path fill="#FFFFFF" d="M61.7,78.6v-6.8c0-1.2-0.7-2-2-2c-0.9,0-1.7,0.5-2.3,1.1L57.3,70h-1.2v8.6h1.5v-6.4c0.5-0.5,1.1-0.9,1.7-0.9
	c0.6,0,0.8,0.4,0.8,1v6.4H61.7z"/>
<path fill="#FFFFFF" d="M69.5,78.6v-6.8c0-1.2-0.7-2-2-2c-0.9,0-1.7,0.5-2.3,1.1L65,70h-1.2v8.6h1.5v-6.4c0.5-0.5,1.1-0.9,1.7-0.9
	c0.6,0,0.8,0.4,0.8,1v6.4H69.5z"/>
<path fill="#FFFFFF" d="M73.4,67.2c0-0.5-0.4-1-1-1s-1,0.5-1,1c0,0.5,0.4,1,1,1S73.4,67.8,73.4,67.2z M73.2,78.6V70h-1.5v8.6H73.2z"
	/>
<path fill="#FFFFFF" d="M81.1,78.6v-6.8c0-1.2-0.7-2-2-2c-0.9,0-1.7,0.5-2.3,1.1L76.7,70h-1.2v8.6H77v-6.4c0.5-0.5,1.1-0.9,1.7-0.9
	c0.6,0,0.8,0.4,0.8,1v6.4H81.1z"/>
<path fill="#FFFFFF" d="M89.8,71.3l-0.2-1.4l-1.9,0.7c-0.5-0.4-1.2-0.7-1.9-0.7c-1.6,0-2.9,1.2-2.9,3c0,1.2,0.6,2.1,1.4,2.6
	c-0.5,0.4-0.7,0.8-0.7,1.2c0,0.3,0.1,0.6,0.4,0.8c-1,0.6-1.6,1.4-1.6,2.2c0,1.6,1.6,2.3,3.5,2.3c2,0,3.6-1,3.6-2.6
	c0-1.4-0.8-1.9-3.3-2.5c-0.8-0.2-1-0.3-1-0.6c0-0.2,0-0.3,0.1-0.5c0.2,0,0.3,0,0.5,0c1.5,0,2.8-1.2,2.8-3c0-0.5-0.1-1-0.3-1.4
	L89.8,71.3z M85.6,77.9c2.1,0.4,2.6,0.7,2.6,1.4c0,0.8-0.8,1.3-2.1,1.3c-1.4,0-2-0.5-2-1.3c0-0.6,0.4-1.2,1.1-1.6
	C85.3,77.9,85.4,77.9,85.6,77.9z M87.2,72.8c0,1.1-0.5,1.8-1.4,1.8c-0.9,0-1.4-0.8-1.4-1.8c0-1.1,0.5-1.9,1.4-1.9
	C86.7,70.9,87.2,71.7,87.2,72.8z"/>
<path fill="#FFFFFF" d="M92.9,78.6v-2.1h-1.7v2.1H92.9z"/>
</svg>
